<svg width="105" height="67" viewBox="0 0 105 67" fill="none" xmlns="http://www.w3.org/2000/svg">
<path fill-rule="evenodd" clip-rule="evenodd" d="M74.1652 49.229C71.1883 53.2658 70.1751 59.024 71.1641 66.8158H59.1088C59.7384 51.8498 59.8466 37.7579 79.2535 32.3086C89.7126 30.3941 92.1869 26.2778 92.0152 21.9141C91.867 18.1464 89.0391 9.7766 78.5828 13.2571C71.7599 15.5275 66.1239 27.405 66.1181 27.4195C60 40.7921 53.6466 66.8158 31.5478 66.8158C14.4141 66.8158 0 52.3536 0 33.824C0 15.2944 13.7041 0.135196 32.0115 0.135196C41.8483 0.135196 46.9072 3.66264 53.8742 8.92223L47.639 21.0579C43.7978 15.9753 38.6735 11.7151 32.0115 11.7151C20.4411 11.7151 12 21.2909 12 33.4086C12 45.528 23.2316 56.169 32.3077 55.0998C39.2308 54.2841 43.5463 50.0228 49.8462 35.7151C50.5214 34.1817 53.0769 28.7921 54.9231 23.7151C56.2657 20.0228 58.9598 14.7519 59.1175 14.5178C69.1393 -0.36148 81.1228 -3.20081 94.6033 3.25809C94.6033 3.25809 105.41 8.84833 104.723 24.5223C104.103 38.6485 88.6028 42.0151 88.6028 42.0151C87.2114 42.2101 84.6385 42.5403 83.4087 42.8582C83.4087 46.5505 94.6621 56.0228 103.846 56.0228V61.0998V62.9459V64.7921V66.6382C93.2774 66.4606 79.8462 60.1767 74.1652 49.229Z" fill="#01C1FB"/>
<circle cx="31.4934" cy="33.6262" r="6.92308" fill="url(#paint0_linear_4554_6430)"/>
<path fill-rule="evenodd" clip-rule="evenodd" d="M18.5703 49.3212C30.5318 64.4739 43.0661 64.7832 55.9549 49.3212L58.7242 15.6289C54.1088 28.552 44.9181 46.1044 43.4934 47.9366C35.1857 57.6289 28.7242 57.1674 18.5703 49.3212Z" fill="url(#paint1_linear_4554_6430)"/>
<path fill-rule="evenodd" clip-rule="evenodd" d="M83.4093 42.8594C83.4093 47.4748 97.9549 57.1671 103.493 56.244V66.3978C91.0319 65.9363 79.9549 59.4748 73.9766 49.3146C75.8069 45.8739 78.0337 43.0573 83.4093 42.8594Z" fill="url(#paint2_linear_4554_6430)"/>
<path fill-rule="evenodd" clip-rule="evenodd" d="M70.1875 20.4247C77.3733 9.66927 85.9738 3.33268 96.3703 9.96899C100.744 13.6129 103.28 18.3234 103.084 24.841C103.013 27.2184 102.727 30.166 101.563 32.8836C98.9342 39.0235 93.3046 39.9897 86.3676 42.068L83.9745 31.326C88.6395 29.9931 92.4797 27.7661 91.9106 20.6383C91.672 17.6498 87.8589 11.7369 81.9751 12.6674C77.1959 13.0697 73.9779 15.9979 70.1875 20.4247Z" fill="url(#paint3_linear_4554_6430)"/>
<defs>
<linearGradient id="paint0_linear_4554_6430" x1="30.5703" y1="31.78" x2="39.8011" y2="40.5493" gradientUnits="userSpaceOnUse">
<stop stop-color="#01C1FB"/>
<stop offset="1" stop-color="#0084F3"/>
</linearGradient>
<linearGradient id="paint1_linear_4554_6430" x1="55.9814" y1="38.6516" x2="35.9882" y2="57.9783" gradientUnits="userSpaceOnUse">
<stop stop-color="#01C1FB" stop-opacity="0.05"/>
<stop offset="1" stop-color="#0084F3"/>
</linearGradient>
<linearGradient id="paint2_linear_4554_6430" x1="79.2554" y1="47.4748" x2="96.1088" y2="59.9363" gradientUnits="userSpaceOnUse">
<stop stop-color="#0084F3"/>
<stop offset="0.973649" stop-color="#01C1FB" stop-opacity="0"/>
</linearGradient>
<linearGradient id="paint3_linear_4554_6430" x1="95.9704" y1="11.3345" x2="85.3073" y2="29.3284" gradientUnits="userSpaceOnUse">
<stop stop-color="#0084F3"/>
<stop offset="1" stop-color="#01C1FB" stop-opacity="0.78"/>
</linearGradient>
</defs>
</svg>
